Coordinates
version=1
nRows=8
nColumns=60
inDegrees=yes

Units are S.I. units (second, meters, Newtons, ...)
If the header above contains a line with 'inDegrees', this indicates whether rotational values are in degrees (yes) or radians (no).

endheader
time	pelvis_tilt	pelvis_list	pelvis_rotation	pelvis_tx	pelvis_ty	pelvis_tz	hip_flexion_r	hip_adduction_r	hip_rotation_r	knee_angle_r_beta	knee_angle_r	ankle_angle_r	subtalar_angle_r	mtp_angle_r	hip_flexion_l	hip_adduction_l	hip_rotation_l	knee_angle_l_beta	knee_angle_l	ankle_angle_l	subtalar_angle_l	mtp_angle_l	L5_S1_Flex_Ext	L5_S1_Lat_Bending	L5_S1_axial_rotation	L4_L5_Flex_Ext	L4_L5_Lat_Bending	L4_L5_axial_rotation	L3_L4_Flex_Ext	L3_L4_Lat_Bending	L3_L4_axial_rotation	L2_L3_Flex_Ext	L2_L3_Lat_Bending	L2_L3_axial_rotation	L1_L2_Flex_Ext	L1_L2_Lat_Bending	L1_L2_axial_rotation	L1_T12_Flex_Ext	L1_T12_Lat_Bending	L1_T12_axial_rotation	Abs_r3	Abs_r2	Abs_r1	Abs_t1	Abs_t2	arm_flex_r	arm_add_r	arm_rot_r	elbow_flex_r	pro_sup_r	wrist_flex_r	wrist_dev_r	arm_flex_l	arm_add_l	arm_rot_l	elbow_flex_l	pro_sup_l	wrist_flex_l	wrist_dev_l
      2.83000000	      2.02968763	    -10.41808063	     95.63971653	      0.40546087	      0.86127675	      0.38462625	     42.46824773	     -6.17853475	     -1.70195450	      0.72816064	    -41.72053135	     10.58559065	      0.00000000	      0.00000000	     44.57083621	     -5.93165164	      2.14413957	      0.70364728	    -40.31601937	      8.90383307	      0.00000000	      0.00000000	    -10.36231154	      0.41135675	      0.02149335	    -19.24384875	      0.54710448	      0.02283669	    -17.02424162	      1.00017281	      0.02283669	    -11.84308585	      1.00017281	      0.01880668	     -9.62244249	      0.83883869	      0.01746335	     -5.92102481	      0.63719161	      0.01612001	    -74.01695507	      4.65334986	      0.11953958	      0.00000000	      0.00000000	     68.10641702	    -19.33319674	     21.42068954	     55.19235163	     63.93031365	    -18.59602390	     25.56388155	     74.47721140	    -18.24282244	     35.81317116	     50.85456611	     53.83047758	    -20.95192598	     21.34805316
      2.84000000	      2.10023290	    -10.08694718	     95.64316942	      0.40566277	      0.86392488	      0.38318831	     41.61397865	     -6.01304756	     -1.74533718	      0.71572864	    -41.00823039	     10.34445098	      0.00000000	      0.00000000	     43.73682340	     -6.00146689	      2.31479031	      0.69162822	    -39.62737811	      8.74785146	      0.00000000	      0.00000000	    -10.32144900	      0.41877838	      0.02873158	    -19.16796294	      0.55697525	      0.03052731	    -16.95710856	      1.01821776	      0.03052731	    -11.79638406	      1.01821776	      0.02514013	     -9.58449754	      0.85397288	      0.02334441	     -5.89767596	      0.64868772	      0.02154869	    -73.72507807	      4.73730483	      0.15979644	      0.00000000	      0.00000000	     66.97455746	    -19.51694533	     21.36320010	     55.87104084	     63.90405773	    -18.85023018	     25.62822176	     73.36959728	    -18.50920160	     35.58955364	     51.62663605	     54.07903355	    -21.20025145	     21.53900584
      2.85000000	      2.14198949	     -9.78138465	     95.62624012	      0.40585600	      0.86649321	      0.38170451	     40.79996027	     -5.88193373	     -1.80378457	      0.70374312	    -40.32151072	     10.15666024	      0.00000000	      0.00000000	     42.91936287	     -6.06278410	      2.43080833	      0.67971827	    -38.94498826	      8.63786715	      0.00000000	      0.00000000	    -10.26669350	      0.42303866	      0.03480204	    -19.06627650	      0.56264141	      0.03697717	    -16.86715075	      1.02857619	      0.03697717	    -11.73380400	      1.02857619	      0.03045179	     -9.53365158	      0.86266043	      0.02827666	     -5.86638866	      0.65528688	      0.02610153	    -73.33396499	      4.78549788	      0.19355853	      0.00000000	      0.00000000	     65.79287519	    -19.68625022	     21.32489482	     56.45199700	     63.85545719	    -19.07783342	     25.57732895	     72.23511581	    -18.72628969	     35.43104787	     52.25746010	     54.27430800	    -21.40273131	     21.60088890
      2.86000000	      2.19155016	     -9.31159020	     95.59936203	      0.40606497	      0.86933776	      0.38010477	     39.78189858	     -5.71073370	     -1.83264586	      0.69104262	    -39.59382531	      9.88718251	      0.00000000	      0.00000000	     41.90440398	     -6.13796053	      2.62737432	      0.66743074	    -38.24096437	      8.47148856	      0.00000000	      0.00000000	    -10.24457282	      0.42816690	      0.04562048	    -19.02519619	      0.56946198	      0.04847176	    -16.83080869	      1.04104500	      0.04847176	    -11.70852228	      1.04104500	      0.03991792	     -9.51311032	      0.87311794	      0.03706664	     -5.85374891	      0.66323053	      0.03421536	    -73.17595921	      4.84350961	      0.25372745	      0.00000000	      0.00000000	     64.58791429	    -19.96645814	     21.24661939	     57.40106975	     63.79420310	    -19.45129566	     25.86486766	     71.09560515	    -19.02250058	     35.07882922	     53.23250612	     54.68528347	    -21.67828735	     22.08371256
      2.87000000	      2.18897771	     -8.92426695	     95.55496405	      0.40623721	      0.87199748	      0.37847665	     38.86948646	     -5.59646421	     -1.83397732	      0.67884495	    -38.89495086	      9.71669638	      0.00000000	      0.00000000	     40.96331386	     -6.17390716	      2.73468516	      0.65514354	    -37.53696001	      8.37825438	      0.00000000	      0.00000000	    -10.19318493	      0.42800664	      0.04926366	    -18.92976374	      0.56924883	      0.05234264	    -16.74638353	      1.04065535	      0.05234264	    -11.64979106	      1.04065535	      0.04310570	     -9.46539153	      0.87279114	      0.04002672	     -5.82438587	      0.66298229	      0.03694775	    -72.80890066	      4.84169674	      0.27398970	      0.00000000	      0.00000000	     63.33104449	    -20.16863714	     21.19328924	     58.07724139	     63.73369428	    -19.72822114	     25.88008522	     69.91824678	    -19.23834325	     34.87982953	     53.90838970	     54.94123410	    -21.87001910	     22.23957614
      2.88000000	      2.16547518	     -8.42921719	     95.48844779	      0.40644376	      0.87480437	      0.37671567	     37.82616907	     -5.49234821	     -1.86731776	      0.66628436	    -38.17528155	      9.53957302	      0.00000000	      0.00000000	     39.88836358	     -6.22889018	      2.77552461	      0.64266289	    -36.82187133	      8.27603299	      0.00000000	      0.00000000	    -10.15728546	      0.42462509	      0.05317854	    -18.86309484	      0.56475136	      0.05650220	    -16.68740429	      1.03243343	      0.05650220	    -11.60876156	      1.03243343	      0.04653122	     -9.43205528	      0.86589548	      0.04320756	     -5.80387291	      0.65774426	      0.03988390	    -72.55247434	      4.80344390	      0.29576307	      0.00000000	      0.00000000	     62.05353227	    -20.40934289	     21.13954749	     58.89562987	     63.65147756	    -20.08294167	     26.05602860	     68.75779104	    -19.50791741	     34.67633974	     54.70136556	     55.21430540	    -22.08491695	     22.57639158
      2.89000000	      2.14537388	     -8.09959662	     95.41221038	      0.40672219	      0.87720692	      0.37497415	     37.00800140	     -5.40683171	     -1.96292580	      0.65516534	    -37.53820905	      9.47050035	      0.00000000	      0.00000000	     39.04538454	     -6.29630333	      2.73518750	      0.63194512	    -36.20778847	      8.25708164	      0.00000000	      0.00000000	    -10.07161473	      0.41690708	      0.04962516	    -18.70399571	      0.55448641	      0.05272673	    -16.54665583	      1.01366787	      0.05272673	    -11.51084847	      1.01366787	      0.04342201	     -9.35250143	      0.85015692	      0.04032044	     -5.75492065	      0.64578907	      0.03721887	    -71.94053682	      4.71613626	      0.27600025	      0.00000000	      0.00000000	     60.71286386	    -20.46904892	     21.13775479	     59.27942721	     63.55705052	    -20.32015426	     25.87857570	     67.57224048	    -19.73714094	     34.72714024	     55.07748275	     55.23948663	    -22.16526494	     22.51687540
      2.90000000	      2.04926088	     -7.42128056	     95.30314911	      0.40686528	      0.88031957	      0.37302263	     35.69819597	     -5.27571280	     -1.66892086	      0.64062832	    -36.70529893	      9.26215270	      0.00000000	      0.00000000	     37.67061310	     -6.27795307	      2.86736913	      0.61733729	    -35.37082132	      8.11237810	      0.00000000	      0.00000000	    -10.05972380	      0.41098823	      0.05143663	    -18.68191306	      0.54661434	      0.05465142	    -16.52712023	      0.99927677	      0.05465142	    -11.49725833	      0.99927677	      0.04500705	     -9.34145952	      0.83808719	      0.04179226	     -5.74812618	      0.63662076	      0.03857747	    -71.85560111	      4.64918102	      0.28607511	      0.00000000	      0.00000000	     59.44155924	    -20.77685720	     21.10655540	     60.23161853	     63.47629931	    -20.72087586	     26.14363182	     66.40985773	    -20.07290227	     34.58994738	     56.01025008	     55.40782463	    -22.46867745	     22.87620450
